<svg width="29" height="28" viewBox="0 0 29 28" fill="none" xmlns="http://www.w3.org/2000/svg">
<path d="M9.62915 15.1666L15.3458 20.8833C15.5791 21.1166 15.6911 21.3889 15.6818 21.7C15.6725 22.0111 15.5508 22.2833 15.3166 22.5166C15.0833 22.7305 14.8111 22.8425 14.5 22.8526C14.1889 22.8628 13.9166 22.7508 13.6833 22.5166L5.98331 14.8166C5.86665 14.7 5.78381 14.5736 5.73481 14.4375C5.68581 14.3014 5.66209 14.1555 5.66365 14C5.6652 13.8444 5.6897 13.6986 5.73715 13.5625C5.78459 13.4264 5.86704 13.3 5.98448 13.1833L13.6845 5.48331C13.8984 5.26942 14.1659 5.16248 14.4871 5.16248C14.8084 5.16248 15.0853 5.26942 15.3178 5.48331C15.5511 5.71664 15.6678 5.99392 15.6678 6.31514C15.6678 6.63636 15.5511 6.91325 15.3178 7.14581L9.62915 12.8333H22.6666C22.9972 12.8333 23.2745 12.9453 23.4985 13.1693C23.7225 13.3933 23.8341 13.6702 23.8333 14C23.8325 14.3298 23.7205 14.607 23.4973 14.8318C23.2741 15.0566 22.9972 15.1682 22.6666 15.1666H9.62915Z" fill="#1E1E1E"/>
</svg>
