<svg width="12" height="8" viewBox="0 0 12 8" fill="none" xmlns="http://www.w3.org/2000/svg">
<path d="M4.36664 6.1L10.0166 0.45C10.15 0.316667 10.3055 0.25 10.4833 0.25C10.6611 0.25 10.8166 0.316667 10.95 0.45C11.0833 0.583333 11.15 0.741778 11.15 0.925333C11.15 1.10889 11.0833 1.26711 10.95 1.4L4.83331 7.53333C4.69998 7.66667 4.54442 7.73333 4.36664 7.73333C4.18887 7.73333 4.03331 7.66667 3.89998 7.53333L1.03331 4.66667C0.899978 4.53333 0.835978 4.37511 0.841311 4.192C0.846644 4.00889 0.9162 3.85044 1.04998 3.71667C1.18376 3.58289 1.3422 3.51622 1.52531 3.51667C1.70842 3.51711 1.86664 3.58378 1.99998 3.71667L4.36664 6.1Z" fill="#FDFDFD"/>
</svg>
