<svg width="20" height="20" viewBox="0 0 20 20" fill="none" xmlns="http://www.w3.org/2000/svg">
<path d="M5.00002 15.8333C5.00002 16.75 5.75002 17.5 6.66669 17.5H13.3334C14.25 17.5 15 16.75 15 15.8333V7.5C15 6.58333 14.25 5.83333 13.3334 5.83333H6.66669C5.75002 5.83333 5.00002 6.58333 5.00002 7.5V15.8333ZM15 3.33333H12.9167L12.325 2.74167C12.175 2.59167 11.9584 2.5 11.7417 2.5H8.25835C8.04169 2.5 7.82502 2.59167 7.67502 2.74167L7.08335 3.33333H5.00002C4.54169 3.33333 4.16669 3.70833 4.16669 4.16667C4.16669 4.625 4.54169 5 5.00002 5H15C15.4584 5 15.8334 4.625 15.8334 4.16667C15.8334 3.70833 15.4584 3.33333 15 3.33333Z" fill="#8E8E8E"/>
</svg>
