<svg width="29" height="28" viewBox="0 0 29 28" fill="none" xmlns="http://www.w3.org/2000/svg">
<path fill-rule="evenodd" clip-rule="evenodd" d="M13.674 3.85937C13.2144 4.45904 12.6964 5.38537 11.9427 6.73637L11.5612 7.42121L11.4924 7.54487C11.1424 8.17487 10.8449 8.70921 10.3677 9.07087C9.88586 9.43721 9.29786 9.56904 8.61419 9.72304L8.48119 9.75337L7.73919 9.92137C6.27503 10.2527 5.27753 10.4802 4.59619 10.7497C3.93003 11.011 3.79003 11.2269 3.73636 11.3984C3.67919 11.5804 3.67803 11.8592 4.07469 12.4915C4.47953 13.1332 5.16203 13.9335 6.15836 15.1002L6.66469 15.6917L6.75219 15.7932C7.22236 16.3415 7.61436 16.7989 7.79403 17.3775C7.97253 17.9527 7.91303 18.5559 7.84069 19.2885L7.82903 19.425L7.75203 20.2149C7.60036 21.7689 7.50003 22.8399 7.53386 23.6099C7.56886 24.3799 7.73103 24.5922 7.86053 24.6902C7.97486 24.7777 8.18719 24.8734 8.87903 24.675C9.58253 24.4744 10.5182 24.0462 11.889 23.415L12.5844 23.0954L12.7115 23.037C13.3474 22.7419 13.898 22.4875 14.5 22.4875C15.102 22.4875 15.6527 22.7419 16.2885 23.0359C16.3297 23.0561 16.3725 23.0755 16.4169 23.0942L17.111 23.415C18.4819 24.0462 19.4175 24.4744 20.121 24.675C20.8129 24.8734 21.0252 24.7777 21.1395 24.6902C21.269 24.5922 21.4312 24.3787 21.4662 23.6099C21.5012 22.8399 21.3985 21.7689 21.248 20.2149L21.171 19.425L21.1594 19.2885C21.087 18.5559 21.0275 17.9527 21.206 17.3775C21.3857 16.7989 21.7777 16.3415 22.2479 15.7932L22.3354 15.6917L22.8417 15.1002C23.838 13.9335 24.5205 13.1332 24.9242 12.4915C25.322 11.8592 25.3209 11.5815 25.2637 11.3984C25.21 11.2269 25.07 11.011 24.4039 10.7497C23.7214 10.4802 22.725 10.2527 21.2609 9.92137L20.5189 9.75337L20.3859 9.72304C19.7022 9.56904 19.1142 9.43721 18.6324 9.07087C18.154 8.70921 17.8589 8.17604 17.5077 7.54487L17.44 7.42121L17.0574 6.73637C16.3037 5.38537 15.7857 4.45904 15.326 3.85937C14.8664 3.25971 14.633 3.20837 14.5 3.20837C14.367 3.20837 14.1325 3.25971 13.674 3.85937ZM12.2857 2.79537C12.8399 2.06971 13.527 1.45837 14.5 1.45837C15.473 1.45837 16.159 2.06971 16.7155 2.79537C17.2615 3.50937 17.8414 4.54887 18.5495 5.81937L18.9684 6.56954C19.4257 7.39087 19.5435 7.56587 19.6905 7.67787C19.8305 7.78404 20.0137 7.84471 20.9039 8.04654L21.7205 8.23087C23.0925 8.54121 24.223 8.79671 25.0455 9.12104C25.8995 9.45821 26.6474 9.95404 26.9355 10.8792C27.2202 11.795 26.9005 12.6374 26.4059 13.4225C25.9252 14.1867 25.1575 15.085 24.2195 16.1817L23.6654 16.8292C23.0622 17.5339 22.9362 17.7065 22.8767 17.8967C22.8172 18.0915 22.8219 18.3167 22.914 19.2559L22.9969 20.1169C23.1392 21.5822 23.2547 22.7769 23.2139 23.6869C23.173 24.6144 22.963 25.5034 22.1989 26.0844C21.4195 26.6747 20.513 26.6094 19.638 26.3574C18.7899 26.1147 17.7329 25.6282 16.4495 25.0367L15.6842 24.6844C14.8465 24.2994 14.668 24.2375 14.5 24.2375C14.332 24.2375 14.1535 24.2994 13.3159 24.6844L12.5517 25.0367C11.2672 25.6282 10.2102 26.1147 9.36203 26.3574C8.48703 26.6082 7.58053 26.6747 6.80236 26.0844C6.03703 25.5034 5.82703 24.6144 5.78619 23.688C5.74536 22.778 5.86086 21.5822 6.00319 20.118L6.08719 19.2559C6.17819 18.3155 6.18286 18.0915 6.12219 17.8967C6.06386 17.7065 5.93786 17.535 5.33469 16.8292L4.78053 16.1817C3.84369 15.085 3.07603 14.1867 2.59536 13.4237C2.09953 12.6374 1.77986 11.795 2.06453 10.8792C2.35269 9.95404 3.10053 9.45821 3.95453 9.12104C4.77703 8.79671 5.90753 8.54121 7.27953 8.23087L7.35303 8.21454L8.09503 8.04654C8.98636 7.84471 9.16836 7.78404 9.30953 7.67671C9.45653 7.56587 9.57436 7.39087 10.0329 6.56954L10.4505 5.81937C11.1587 4.54771 11.7385 3.50937 12.2845 2.79537" fill="#1E1E1E"/>
</svg>
