<svg width="29" height="28" viewBox="0 0 29 28" fill="none" xmlns="http://www.w3.org/2000/svg">
<path d="M11.1785 6.30937C12.6567 3.65871 13.3952 2.33337 14.5 2.33337C15.6048 2.33337 16.3433 3.65871 17.8215 6.30937L18.2042 6.99537C18.6242 7.74904 18.8342 8.12587 19.1608 8.37437C19.4875 8.62287 19.8958 8.71504 20.7125 8.89937L21.4545 9.06737C24.3245 9.71721 25.7583 10.0415 26.1002 11.1394C26.4408 12.236 25.4632 13.3805 23.5067 15.6684L23.0003 16.2599C22.445 16.9097 22.1662 17.2352 22.0413 17.6365C21.9165 18.039 21.9585 18.473 22.0425 19.3399L22.1195 20.1297C22.4147 23.1829 22.5628 24.7089 21.6692 25.3867C20.7755 26.0645 19.4315 25.4462 16.7458 24.2095L16.0493 23.8899C15.2863 23.5375 14.9048 23.3625 14.5 23.3625C14.0952 23.3625 13.7137 23.5375 12.9507 23.8899L12.2553 24.2095C9.56851 25.4462 8.22451 26.0645 7.33201 25.3879C6.43718 24.7089 6.58534 23.1829 6.88051 20.1297L6.95751 19.341C7.04151 18.473 7.08351 18.039 6.95751 17.6377C6.83384 17.2352 6.55501 16.9097 5.99968 16.261L5.49334 15.6684C3.53684 13.3817 2.55918 12.2372 2.89984 11.1394C3.24051 10.0415 4.67668 9.71604 7.54668 9.06737L8.28868 8.89937C9.10418 8.71504 9.51134 8.62287 9.83918 8.37437C10.167 8.12587 10.3758 7.74904 10.7958 6.99537L11.1785 6.30937Z" fill="#300A91"/>
</svg>
