<svg width="27" height="25" viewBox="0 0 27 25" fill="none" xmlns="http://www.w3.org/2000/svg">
<path d="M1.80531 5.79613L11.3226 1.78034C11.4797 1.71513 11.6486 1.68104 11.8195 1.68008C11.9903 1.67912 12.1597 1.71131 12.3175 1.77475C12.4753 1.83819 12.6184 1.9316 12.7384 2.04947C12.8583 2.16734 12.9527 2.30728 13.016 2.46105L19.5813 17.8345C19.7178 18.1462 19.7224 18.4974 19.5942 18.8124C19.4661 19.1274 19.2153 19.3811 18.896 19.5188L9.37997 23.5346C9.22285 23.6 9.0538 23.6342 8.88279 23.6353C8.71178 23.6364 8.54229 23.6042 8.38432 23.5408C8.22634 23.4773 8.0831 23.3838 7.96304 23.2659C7.84298 23.1479 7.74855 23.0078 7.68531 22.8539L1.11997 7.47917C0.98351 7.16743 0.978869 6.81624 1.10705 6.50122C1.23523 6.1862 1.48597 5.93382 1.80531 5.79613ZM17 1.66667H18.3333C18.6869 1.66667 19.0261 1.80276 19.2761 2.04499C19.5262 2.28723 19.6666 2.61577 19.6666 2.95834V7.47917M23.6666 4.25C24.0186 4.39467 24.36 4.5303 24.6906 4.65688C25.0161 4.79068 25.2734 5.04424 25.4059 5.3618C25.5385 5.67936 25.5354 6.03491 25.3973 6.35025L22.3333 13.2917" fill="url(#paint0_linear_322_5310)"/>
<path d="M17 1.66667H18.3333C18.6869 1.66667 19.0261 1.80276 19.2761 2.04499C19.5262 2.28723 19.6666 2.61577 19.6666 2.95834V7.47917M23.6666 4.25C24.0186 4.39467 24.36 4.5303 24.6906 4.65688C25.0161 4.79068 25.2734 5.04424 25.4059 5.3618C25.5385 5.67936 25.5354 6.03491 25.3973 6.35025L22.3333 13.2917M1.80531 5.79613L11.3226 1.78034C11.4797 1.71513 11.6486 1.68104 11.8195 1.68008C11.9903 1.67912 12.1597 1.71131 12.3175 1.77475C12.4753 1.83819 12.6184 1.9316 12.7384 2.04947C12.8583 2.16734 12.9527 2.30728 13.016 2.46105L19.5813 17.8345C19.7178 18.1462 19.7224 18.4974 19.5942 18.8124C19.4661 19.1274 19.2153 19.3811 18.896 19.5188L9.37997 23.5346C9.22285 23.6 9.0538 23.6342 8.88279 23.6353C8.71178 23.6364 8.54229 23.6042 8.38432 23.5408C8.22634 23.4773 8.0831 23.3838 7.96304 23.2659C7.84298 23.1479 7.74854 23.0078 7.68531 22.8539L1.11997 7.47917C0.98351 7.16743 0.978869 6.81624 1.10705 6.50122C1.23523 6.1862 1.48597 5.93382 1.80531 5.79613Z" stroke="url(#paint1_linear_322_5310)" stroke-width="1.8" stroke-linecap="round" stroke-linejoin="round"/>
<defs>
<linearGradient id="paint0_linear_322_5310" x1="1.01416" y1="2.63329" x2="26.1767" y2="5.7475" gradientUnits="userSpaceOnUse">
<stop offset="0.0001" stop-color="#CAA1FF"/>
<stop offset="0.649" stop-color="#3C0AA4"/>
</linearGradient>
<linearGradient id="paint1_linear_322_5310" x1="1.01416" y1="2.63329" x2="26.1767" y2="5.7475" gradientUnits="userSpaceOnUse">
<stop offset="0.0001" stop-color="#CAA1FF"/>
<stop offset="0.649" stop-color="#3C0AA4"/>
</linearGradient>
</defs>
</svg>
