<svg width="28" height="28" viewBox="0 0 28 28" fill="none" xmlns="http://www.w3.org/2000/svg">
<path d="M17.5 4.66669H18.6666C18.9761 4.66669 19.2728 4.7896 19.4916 5.0084C19.7104 5.22719 19.8333 5.52393 19.8333 5.83335V9.91669M23.3333 7.00002C23.6413 7.13069 23.94 7.25319 24.2293 7.36752C24.5141 7.48837 24.7392 7.7174 24.8552 8.00423C24.9712 8.29106 24.9684 8.6122 24.8476 8.89702L22.1666 15.1667M4.20464 8.39652L12.5323 4.76935C12.6697 4.71046 12.8175 4.67966 12.967 4.6788C13.1165 4.67793 13.2647 4.70701 13.4028 4.76431C13.5409 4.82161 13.6661 4.90598 13.7711 5.01244C13.876 5.1189 13.9586 5.2453 14.014 5.38419L19.7586 19.2699C19.878 19.5514 19.8821 19.8686 19.77 20.1532C19.6578 20.4377 19.4384 20.6668 19.159 20.7912L10.8325 24.4184C10.695 24.4774 10.5471 24.5084 10.3974 24.5093C10.2478 24.5103 10.0995 24.4813 9.96128 24.4239C9.82305 24.3666 9.69771 24.2822 9.59266 24.1756C9.48761 24.0691 9.40498 23.9425 9.34964 23.8035L3.60498 9.91669C3.48557 9.63511 3.48151 9.31791 3.59367 9.03338C3.70582 8.74884 3.92523 8.52089 4.20464 8.39652Z" stroke="#1E1E1E" stroke-width="1.8" stroke-linecap="round" stroke-linejoin="round"/>
</svg>
