<svg width="29" height="28" viewBox="0 0 29 28" fill="none" xmlns="http://www.w3.org/2000/svg">
<path d="M19.8677 15.1666L14.1511 20.8833C13.9177 21.1166 13.8057 21.3889 13.8151 21.7C13.8244 22.0111 13.9461 22.2833 14.1802 22.5166C14.4136 22.7305 14.6858 22.8425 14.9969 22.8526C15.308 22.8628 15.5802 22.7508 15.8136 22.5166L23.5136 14.8166C23.6302 14.7 23.7131 14.5736 23.7621 14.4375C23.8111 14.3014 23.8348 14.1555 23.8332 14C23.8317 13.8444 23.8072 13.6986 23.7597 13.5625C23.7123 13.4264 23.6299 13.3 23.5124 13.1833L15.8124 5.48331C15.5985 5.26942 15.331 5.16248 15.0097 5.16248C14.6885 5.16248 14.4116 5.26942 14.1791 5.48331C13.9457 5.71664 13.8291 5.99392 13.8291 6.31514C13.8291 6.63636 13.9457 6.91325 14.1791 7.14581L19.8677 12.8333H6.83024C6.49969 12.8333 6.22241 12.9453 5.99841 13.1693C5.77441 13.3933 5.6628 13.6702 5.66358 14C5.66435 14.3298 5.77635 14.607 5.99957 14.8318C6.2228 15.0566 6.49969 15.1682 6.83024 15.1666H19.8677Z" fill="#1E1E1E"/>
</svg>
