<svg width="28" height="28" viewBox="0 0 28 28" fill="none" xmlns="http://www.w3.org/2000/svg">
<mask id="path-1-outside-1_322_3298" maskUnits="userSpaceOnUse" x="0.378052" y="0.0541458" width="27" height="28" fill="black">
<rect fill="white" x="0.378052" y="0.0541458" width="27" height="28"/>
<path d="M24.1774 7.68375L15.5454 2.49125C15.0731 2.20559 14.5275 2.05415 13.9707 2.05415C13.4139 2.05415 12.8683 2.20559 12.396 2.49125L3.76538 7.71346C3.27465 8.01325 2.88517 8.44557 2.64494 8.95716C2.40471 9.46874 2.32421 10.0372 2.41338 10.5926L4.64005 23.5441C4.75774 24.2221 5.1219 24.837 5.66671 25.2776C6.21153 25.7182 6.90106 25.9555 7.61071 25.9466H20.3867C21.0966 25.9558 21.7864 25.7187 22.3315 25.278C22.8766 24.8374 23.241 24.2224 23.3587 23.5441L25.5854 10.5926C25.6749 10.027 25.5886 9.44843 25.3373 8.93059C25.0861 8.41276 24.6814 7.97914 24.1747 7.68504"/>
</mask>
<path d="M24.1774 7.68375L15.5454 2.49125C15.0731 2.20559 14.5275 2.05415 13.9707 2.05415C13.4139 2.05415 12.8683 2.20559 12.396 2.49125L3.76538 7.71346C3.27465 8.01325 2.88517 8.44557 2.64494 8.95716C2.40471 9.46874 2.32421 10.0372 2.41338 10.5926L4.64005 23.5441C4.75774 24.2221 5.1219 24.837 5.66671 25.2776C6.21153 25.7182 6.90106 25.9555 7.61071 25.9466H20.3867C21.0966 25.9558 21.7864 25.7187 22.3315 25.278C22.8766 24.8374 23.241 24.2224 23.3587 23.5441L25.5854 10.5926C25.6749 10.027 25.5886 9.44843 25.3373 8.93059C25.0861 8.41276 24.6814 7.97914 24.1747 7.68504" fill="url(#paint0_linear_322_3298)"/>
<path d="M23.2753 9.18334C24.1035 9.68154 25.1788 9.41402 25.677 8.58582C26.1752 7.75762 25.9076 6.68236 25.0794 6.18416L23.2753 9.18334ZM15.5454 2.49125L14.6397 3.98867L14.6433 3.99084L15.5454 2.49125ZM13.9707 2.05415V3.80415V2.05415ZM12.396 2.49125L11.4904 0.993837L11.4901 0.994L12.396 2.49125ZM3.76538 7.71346L2.85942 6.2162L2.85306 6.22008L3.76538 7.71346ZM2.41338 10.5926L0.685512 10.87C0.686534 10.8764 0.687592 10.8827 0.688685 10.8891L2.41338 10.5926ZM4.64005 23.5441L2.91535 23.8406L2.91583 23.8434L4.64005 23.5441ZM7.61071 25.9466V24.1966C7.6034 24.1966 7.59608 24.1967 7.58876 24.1968L7.61071 25.9466ZM20.3867 25.9466L20.4094 24.1968C20.4019 24.1967 20.3943 24.1966 20.3867 24.1966V25.9466ZM23.3587 23.5441L25.0829 23.8434L25.0834 23.8406L23.3587 23.5441ZM25.5854 10.5926L27.3101 10.8891C27.3114 10.8815 27.3126 10.8739 27.3138 10.8663L25.5854 10.5926ZM25.0533 6.17156C24.2174 5.68634 23.1464 5.97061 22.6612 6.80648C22.176 7.64236 22.4603 8.71331 23.2962 9.19853L25.0533 6.17156ZM25.0794 6.18416L16.4474 0.991658L14.6433 3.99084L23.2753 9.18334L25.0794 6.18416ZM16.4511 0.993837C15.7031 0.541425 14.8438 0.304146 13.9707 0.304146V3.80415C14.2112 3.80415 14.4431 3.86976 14.6397 3.98866L16.4511 0.993837ZM13.9707 0.304146C13.0976 0.304146 12.2384 0.541425 11.4904 0.993837L13.3017 3.98866C13.4983 3.86976 13.7303 3.80415 13.9707 3.80415V0.304146ZM11.4901 0.994L2.85943 6.21621L4.67133 9.21071L13.302 3.9885L11.4901 0.994ZM2.85306 6.22008C2.07529 6.69523 1.44949 7.38579 1.0609 8.21331L4.22898 9.701C4.32085 9.50536 4.47401 9.33127 4.6777 9.20684L2.85306 6.22008ZM1.0609 8.21331C0.671989 9.0415 0.54032 9.96573 0.685512 10.87L4.14125 10.3152C4.10811 10.1087 4.13742 9.89598 4.22898 9.701L1.0609 8.21331ZM0.688685 10.8891L2.91535 23.8406L6.36474 23.2476L4.13808 10.2961L0.688685 10.8891ZM2.91583 23.8434C3.10747 24.9474 3.69844 25.9365 4.56626 26.6383L6.76717 23.9169C6.54536 23.7375 6.40802 23.4969 6.36426 23.2448L2.91583 23.8434ZM4.56626 26.6383C5.43283 27.3391 6.52069 27.7104 7.63267 27.6965L7.58876 24.1968C7.28144 24.2006 6.99023 24.0973 6.76717 23.9169L4.56626 26.6383ZM7.61071 27.6966H20.3867V24.1966H7.61071V27.6966ZM20.364 27.6965C21.4763 27.7109 22.5647 27.3398 23.4317 26.639L21.2314 23.9171C21.0082 24.0975 20.7169 24.2008 20.4094 24.1968L20.364 27.6965ZM23.4317 26.639C24.3 25.9371 24.8912 24.9478 25.0829 23.8434L21.6345 23.2448C21.5907 23.497 21.4533 23.7377 21.2314 23.9171L23.4317 26.639ZM25.0834 23.8406L27.3101 10.8891L23.8607 10.2961L21.634 23.2476L25.0834 23.8406ZM27.3138 10.8663C27.4597 9.9453 27.3184 9.00474 26.9118 8.1667L23.7629 9.69449C23.8588 9.89212 23.8902 10.1087 23.8569 10.3189L27.3138 10.8663ZM26.9118 8.1667C26.5056 7.32938 25.8556 6.63732 25.0533 6.17156L23.2962 9.19853C23.5071 9.32096 23.6666 9.49614 23.7629 9.69449L26.9118 8.1667Z" fill="#FDFDFD" mask="url(#path-1-outside-1_322_3298)"/>
<defs>
<linearGradient id="paint0_linear_322_3298" x1="2.37805" y1="3.10543" x2="26.3452" y2="5.69391" gradientUnits="userSpaceOnUse">
<stop offset="0.0001" stop-color="#CAA1FF"/>
<stop offset="0.649" stop-color="#3C0AA4"/>
</linearGradient>
</defs>
</svg>
