<svg width="28" height="28" viewBox="0 0 28 28" fill="none" xmlns="http://www.w3.org/2000/svg">
<path d="M22.9052 8.29501L15.3522 3.60501C14.9389 3.347 14.4615 3.21021 13.9743 3.21021C13.4871 3.21021 13.0097 3.347 12.5965 3.60501L5.04466 8.32184C4.61527 8.59262 4.27448 8.98311 4.06428 9.44518C3.85407 9.90726 3.78364 10.4207 3.86166 10.9223L5.81 22.6205C5.91298 23.2329 6.23162 23.7883 6.70833 24.1862C7.18504 24.5842 7.78838 24.7986 8.40933 24.7905H19.5883C20.2095 24.7988 20.8131 24.5846 21.2901 24.1866C21.767 23.7886 22.0858 23.2331 22.1888 22.6205L24.1372 10.9223C24.2155 10.4115 24.14 9.88891 23.9201 9.42119C23.7003 8.95347 23.3461 8.56181 22.9028 8.29618" stroke="#1E1E1E" stroke-width="1.75" stroke-linecap="round" stroke-linejoin="round"/>
</svg>
