<svg width="25" height="24" viewBox="0 0 25 24" fill="none" xmlns="http://www.w3.org/2000/svg">
<path fill-rule="evenodd" clip-rule="evenodd" d="M22.5 5.99997C22.4999 5.42332 22.3752 4.8535 22.1343 4.32957C21.8934 3.80564 21.5421 3.33999 21.1044 2.96453C20.6667 2.58907 20.1531 2.31268 19.5986 2.15431C19.0441 1.99593 18.462 1.95932 17.892 2.04697L10.892 3.12397C9.94752 3.26922 9.08625 3.74779 8.46406 4.47306C7.84187 5.19833 7.49989 6.12238 7.5 7.07797V15.841C6.81482 15.516 6.04262 15.4223 5.2996 15.574C4.55658 15.7258 3.88296 16.1148 3.3801 16.6824C2.87725 17.2501 2.57237 17.9657 2.51135 18.7216C2.45033 19.4775 2.63648 20.2328 3.04177 20.8738C3.44706 21.5147 4.04957 22.0067 4.75863 22.2757C5.46768 22.5447 6.24492 22.5761 6.97336 22.3652C7.7018 22.1543 8.34203 21.7125 8.79771 21.1063C9.25339 20.5001 9.49985 19.7623 9.5 19.004V7.07797C9.49971 6.6 9.67059 6.13774 9.98171 5.77489C10.2928 5.41205 10.7236 5.17262 11.196 5.09997L18.196 4.02297C18.4811 3.97912 18.7723 3.99747 19.0497 4.07674C19.327 4.15601 19.5839 4.29434 19.8028 4.48224C20.0216 4.67013 20.1973 4.90314 20.3176 5.16529C20.438 5.42744 20.5002 5.71251 20.5 6.00097V12.841C19.8148 12.516 19.0426 12.4223 18.2996 12.574C17.5566 12.7258 16.883 13.1148 16.3801 13.6824C15.8772 14.2501 15.5724 14.9657 15.5114 15.7216C15.4503 16.4775 15.6365 17.2328 16.0418 17.8738C16.4471 18.5147 17.0496 19.0067 17.7586 19.2757C18.4677 19.5447 19.2449 19.5761 19.9734 19.3652C20.7018 19.1543 21.342 18.7125 21.7977 18.1063C22.2534 17.5001 22.4998 16.7623 22.5 16.004V5.99997ZM20.5 16.004C20.5 15.6061 20.342 15.2246 20.0607 14.9433C19.7794 14.662 19.3978 14.504 19 14.504C18.6022 14.504 18.2206 14.662 17.9393 14.9433C17.658 15.2246 17.5 15.6061 17.5 16.004C17.5 16.4018 17.658 16.7833 17.9393 17.0646C18.2206 17.3459 18.6022 17.504 19 17.504C19.3978 17.504 19.7794 17.3459 20.0607 17.0646C20.342 16.7833 20.5 16.4018 20.5 16.004ZM7.5 19.004C7.5 18.807 7.46121 18.6119 7.38582 18.4299C7.31044 18.248 7.19995 18.0826 7.06066 17.9433C6.92138 17.804 6.75602 17.6935 6.57403 17.6181C6.39204 17.5428 6.19699 17.504 6 17.504C5.80302 17.504 5.60797 17.5428 5.42598 17.6181C5.24399 17.6935 5.07863 17.804 4.93934 17.9433C4.80005 18.0826 4.68957 18.248 4.61418 18.4299C4.5388 18.6119 4.5 18.807 4.5 19.004C4.5 19.4018 4.65804 19.7833 4.93934 20.0646C5.22065 20.3459 5.60218 20.504 6 20.504C6.39783 20.504 6.77936 20.3459 7.06066 20.0646C7.34197 19.7833 7.5 19.4018 7.5 19.004Z" fill="#1E1E1E"/>
</svg>
