<svg width="25" height="24" viewBox="0 0 25 24" fill="none" xmlns="http://www.w3.org/2000/svg">
<path d="M21.674 6.81201C22.2027 6.28344 22.4998 5.56648 22.4999 4.81887C22.5 4.07125 22.2031 3.35422 21.6745 2.82551C21.1459 2.29681 20.429 1.99973 19.6813 1.99963C18.9337 1.99954 18.2167 2.29644 17.688 2.82501L4.342 16.174C4.10981 16.4055 3.93811 16.6905 3.842 17.004L2.521 21.356C2.49515 21.4425 2.4932 21.5344 2.51535 21.6219C2.53749 21.7094 2.58292 21.7892 2.64679 21.853C2.71067 21.9168 2.79062 21.9621 2.87815 21.9841C2.96569 22.0061 3.05755 22.004 3.144 21.978L7.497 20.658C7.81016 20.5628 8.09517 20.3921 8.327 20.161L21.674 6.81201Z" stroke="#1E1E1E" stroke-width="1.8" stroke-linecap="round" stroke-linejoin="round"/>
</svg>
