<svg width="24" height="25" viewBox="0 0 24 25" fill="none" xmlns="http://www.w3.org/2000/svg">
<path d="M9.00001 21.5C9.79601 22.122 10.848 22.5 12 22.5C13.152 22.5 14.204 22.122 15 21.5M2.53001 14.894C2.31701 16.247 3.26801 17.186 4.43201 17.654C8.89501 19.449 15.105 19.449 19.568 17.654C20.732 17.186 21.683 16.247 21.47 14.894C21.34 14.062 20.693 13.37 20.214 12.694C19.587 11.797 19.525 10.82 19.524 9.779C19.525 5.76 16.157 2.5 12 2.5C7.843 2.5 4.47501 5.76 4.47501 9.78C4.47501 10.82 4.41301 11.798 3.78501 12.694C3.30701 13.37 2.66101 14.062 2.53001 14.894Z" stroke="#1E1E1E" stroke-width="1.8" stroke-linecap="round" stroke-linejoin="round"/>
</svg>
