<svg width="28" height="28" viewBox="0 0 28 28" fill="none" xmlns="http://www.w3.org/2000/svg">
<path d="M8.54639 25.375H20.6203C21.7031 25.375 22.5644 24.4841 22.448 23.4577C21.696 16.8438 17.2083 16.9531 17.2083 14C17.2083 11.0469 21.7534 11.2109 22.4474 4.54234C22.5568 3.51531 21.7031 2.625 20.6203 2.625H8.54639C7.46358 2.625 6.6121 3.51531 6.71929 4.54234C7.41327 11.2109 11.9583 10.9922 11.9583 14C11.9583 17.0078 7.47069 16.8438 6.71929 23.4577C6.60225 24.4841 7.46358 25.375 8.54639 25.375Z" stroke="#1E1E1E" stroke-width="1.75" stroke-linecap="round" stroke-linejoin="round"/>
<path d="M19.3575 23.625H9.8326C8.97948 23.625 8.73885 22.6406 9.33714 22.0303C10.7853 20.5625 13.7083 19.5114 13.7083 17.8281V12.25C13.7083 11.1645 11.6302 10.3359 10.3445 8.575C10.1323 8.28461 10.1536 7.875 10.6928 7.875H18.4984C18.9583 7.875 19.0578 8.28133 18.8484 8.57227C17.5813 10.3359 15.4583 11.159 15.4583 12.25V17.8281C15.4583 19.4977 18.5049 20.3984 19.8552 22.032C20.3993 22.6904 20.209 23.625 19.3575 23.625Z" fill="#1E1E1E"/>
</svg>
