<svg width="29" height="28" viewBox="0 0 29 28" fill="none" xmlns="http://www.w3.org/2000/svg">
<path d="M13.6831 2.97528C13.4586 2.97572 13.2341 2.98086 13.0098 2.9907C12.5277 3.0764 12.3052 3.28744 12.1843 3.52899C12.0511 3.79532 12.0563 4.15369 12.2048 4.47235C12.3534 4.79118 12.6259 5.05182 13.0064 5.14916C13.3869 5.24651 13.9107 5.1962 14.5991 4.75612L15.1495 5.61745C14.2844 6.17034 13.4474 6.3162 12.7534 6.13862C12.0596 5.96105 11.5447 5.47565 11.2786 4.90471C11.0279 4.3668 10.9819 3.73571 11.2223 3.17527C8.87527 3.5548 6.75012 4.45485 5.11775 5.72163C4.58126 6.30613 4.52876 6.98546 4.76392 7.44943C5.02806 7.97038 5.65041 8.35068 6.89509 7.95693L7.20441 8.93108C5.64144 9.42545 4.35316 8.89892 3.85315 7.91252C3.7312 7.67206 3.65672 7.4118 3.62746 7.14345C3.36419 7.45583 3.12652 7.781 2.91652 8.1193L2.92341 8.12258C2.45233 9.19533 2.44162 9.93837 2.62941 10.4212C2.81732 10.9041 3.21101 11.2109 3.81723 11.38C5.02954 11.718 6.99266 11.3101 8.37505 10.2777C8.96676 9.83583 9.52769 8.76412 9.57653 7.93298C9.60087 7.51735 9.51282 7.18901 9.33891 6.97934C9.16501 6.76966 8.88654 6.61277 8.31008 6.61873L8.29985 5.59684C9.09211 5.58863 9.7354 5.85682 10.125 6.32659C10.5146 6.79635 10.6315 7.4013 10.5967 7.99281C10.5273 9.17586 9.90794 10.4085 8.98683 11.0963C7.35299 12.3166 5.19502 12.8248 3.54379 12.3644C2.77882 12.1511 2.10168 11.6871 1.75277 10.9682C1.23073 13.4536 1.98919 15.7621 3.43266 17.3598C3.62133 17.5687 3.82215 17.7661 4.03258 17.9493C3.88198 17.518 3.81296 17.0689 3.82915 16.6317C3.85813 15.8483 4.16176 15.0816 4.77087 14.552C5.27038 14.1174 5.96043 13.8667 6.78572 13.8684C6.84073 13.8684 6.89695 13.8694 6.95317 13.8717C7.08169 13.8771 7.21365 13.8883 7.34801 13.9059L7.21458 14.9194C6.36211 14.8074 5.80884 15.0026 5.44073 15.3227C5.07269 15.6428 4.86963 16.1219 4.8494 16.6694C4.80893 17.7644 5.50948 19.0431 7.01994 19.414L7.01819 19.4243C8.50526 19.7081 10.1647 19.4446 11.8307 18.4279C11.8317 18.4272 11.833 18.427 11.8341 18.4263C12.1808 18.1829 12.3676 17.9446 12.4596 17.7392C12.5682 17.4968 12.5659 17.2857 12.4886 17.059C12.3341 16.6056 11.7809 16.1396 11.2735 16.0097C10.4531 15.7997 9.93194 16.0883 9.6876 16.4319C9.44326 16.7753 9.42838 17.1128 9.80551 17.4059L9.17824 18.2125C8.40239 17.6092 8.3529 16.5453 8.85531 15.8388C9.23222 15.309 9.89355 14.946 10.6908 14.9228C10.7244 14.9216 10.7581 14.9211 10.7917 14.9212C11.0272 14.9228 11.2724 14.9552 11.5265 15.0201C12.3745 15.2373 13.1584 15.8556 13.4559 16.7291C13.5353 16.9633 13.5701 17.2103 13.5585 17.4572C14.4723 16.9903 15.436 16.5757 16.4177 16.2643C18.0668 15.5107 18.7818 14.1896 18.7539 13.0771C18.7257 11.9564 18.0327 11.0132 16.4365 10.8554L16.5373 9.83851C18.5425 10.0368 19.7345 11.4708 19.7742 13.0514C19.7972 13.9723 19.4595 14.9306 18.7795 15.7464C19.6584 15.648 20.5319 15.6646 21.3788 15.8354C21.2064 15.4814 21.1229 15.0983 21.1345 14.7177C21.1715 13.5126 22.1965 12.3884 23.8074 12.3713C23.9174 12.3702 24.0274 12.3742 24.1371 12.3832L24.0551 13.4017C22.6919 13.2925 22.1793 14.008 22.1565 14.7501C22.1339 15.484 22.6238 16.3055 24.0279 16.4146C25.5755 16.4282 26.685 15.5889 27.2287 14.3416C27.9566 12.6716 27.6114 10.168 25.3232 7.87818C25.2799 7.83481 25.2369 7.79106 25.1933 7.7483C25.1693 7.95224 25.117 8.15183 25.0379 8.34133C24.6414 9.29234 23.7126 9.93427 22.7479 10.1136C21.417 10.3609 20.3257 9.82117 19.8221 8.99763C19.3184 8.1742 19.4506 7.00974 20.3569 6.3967L20.9295 7.24435C20.4421 7.57401 20.422 8.02037 20.6936 8.46443C20.9653 8.9086 21.5779 9.29327 22.5615 9.11051C23.1798 8.99555 23.8683 8.4909 24.0944 7.9484C24.2076 7.67715 24.2295 7.40907 24.1167 7.10238C24.0251 6.85328 23.8331 6.56841 23.4758 6.2684L23.4656 6.25992C21.9717 5.13407 20.3846 4.32437 18.7761 3.7904C18.7771 3.79215 18.7786 3.79368 18.7796 3.79548C19.1451 4.46377 19.1722 5.22184 18.9471 5.89242C18.4968 7.23363 17.0839 8.29036 15.3359 8.23195C14.956 8.21938 14.5944 8.40258 14.2867 8.76007C13.979 9.11756 13.7543 9.64125 13.7022 10.1991C13.598 11.3147 14.0808 12.5444 15.9632 13.1522L15.6484 14.1246C13.4017 13.3993 12.5405 11.6338 12.6833 10.1051C12.7547 9.34085 13.05 8.63063 13.5122 8.0937C13.9743 7.55678 14.6319 7.18573 15.3699 7.21017C16.6846 7.25403 17.6844 6.43995 17.9778 5.5661C18.1245 5.12926 18.1055 4.69455 17.8821 4.28614C17.6651 3.88955 17.2351 3.49738 16.4653 3.2112C15.5466 3.05164 14.6156 2.9727 13.6831 2.97528ZM19.2184 16.7531C16.9262 16.9396 14.4406 18.0328 12.3672 19.2995C9.30577 21.1697 6.08413 20.7615 3.7983 19.0654C4.69758 22.2835 7.88412 22.9367 11.2085 22.1227C11.5411 21.9978 11.868 21.7652 12.1467 21.4649C12.5327 21.0488 12.8123 20.5095 12.9003 20.0635L13.9035 20.2617C13.7698 20.9389 13.4071 21.6107 12.8969 22.1605C12.4075 22.6879 11.7698 23.1093 11.0324 23.22C10.6624 24.0441 10.3579 24.8431 10.2343 25.4024C10.0402 26.2806 11.0112 26.6178 11.446 25.7321C12.4862 23.6134 13.9545 21.7274 15.7885 20.1011C17.2139 19.1631 18.4357 18.0064 19.2185 16.7531H19.2184Z" fill="#1E1E1E"/>
</svg>
