<svg width="20" height="20" viewBox="0 0 20 20" fill="none" xmlns="http://www.w3.org/2000/svg">
<path d="M15.545 14.6625L17.9862 17.1025C18.1001 17.2204 18.1631 17.3783 18.1616 17.5421C18.1602 17.706 18.0945 17.8628 17.9786 17.9786C17.8627 18.0945 17.706 18.1603 17.5421 18.1617C17.3782 18.1631 17.2204 18.1001 17.1025 17.9863L14.6612 15.545C13.0659 16.9118 11.0032 17.6076 8.906 17.4864C6.80875 17.3651 4.83998 16.4363 3.41279 14.8948C1.98561 13.3533 1.21095 11.3189 1.25138 9.21854C1.29181 7.11818 2.14419 5.11512 3.62964 3.62967C5.11509 2.14422 7.11815 1.29185 9.21851 1.25142C11.3189 1.21098 13.3532 1.98564 14.8948 3.41282C16.4363 4.84001 17.3651 6.80878 17.4863 8.90603C17.6076 11.0033 16.9118 13.066 15.545 14.6613V14.6625ZM9.37498 16.25C11.1983 16.25 12.947 15.5257 14.2363 14.2364C15.5257 12.9471 16.25 11.1984 16.25 9.37501C16.25 7.55165 15.5257 5.80296 14.2363 4.51365C12.947 3.22434 11.1983 2.50001 9.37498 2.50001C7.55162 2.50001 5.80293 3.22434 4.51362 4.51365C3.22431 5.80296 2.49998 7.55165 2.49998 9.37501C2.49998 11.1984 3.22431 12.9471 4.51362 14.2364C5.80293 15.5257 7.55162 16.25 9.37498 16.25Z" fill="#8E8E8E"/>
</svg>
