<svg width="28" height="28" viewBox="0 0 28 28" fill="none" xmlns="http://www.w3.org/2000/svg">
<path d="M9.5 12H17.5M9.5 20H17.5M9.5 16H13.5M5.5 23.4V4.6C5.5 4.44087 5.56321 4.28826 5.67574 4.17574C5.78826 4.06321 5.94087 4 6.1 4H17.752C17.9111 4.00014 18.0636 4.06345 18.176 4.176L21.324 7.324C21.38 7.3799 21.4243 7.44631 21.4545 7.51942C21.4847 7.59253 21.5002 7.6709 21.5 7.75V23.4C21.5 23.4788 21.4845 23.5568 21.4543 23.6296C21.4242 23.7024 21.38 23.7685 21.3243 23.8243C21.2686 23.88 21.2024 23.9242 21.1296 23.9543C21.0568 23.9845 20.9788 24 20.9 24H6.1C6.02121 24 5.94319 23.9845 5.87039 23.9543C5.79759 23.9242 5.73145 23.88 5.67574 23.8243C5.62002 23.7685 5.57583 23.7024 5.54567 23.6296C5.51552 23.5568 5.5 23.4788 5.5 23.4Z" stroke="#1E1E1E" stroke-width="1.75" stroke-linecap="round" stroke-linejoin="round"/>
<path d="M17.5 4V7.4C17.5 7.55913 17.5632 7.71174 17.6757 7.82426C17.7883 7.93679 17.9409 8 18.1 8H21.5" stroke="#1E1E1E" stroke-width="1.75" stroke-linecap="round" stroke-linejoin="round"/>
</svg>
