<svg width="24" height="28" viewBox="0 0 24 28" fill="none" xmlns="http://www.w3.org/2000/svg">
<path d="M1.73804 26.0857V1.91428C1.73804 1.70969 1.81931 1.51347 1.96398 1.3688C2.10865 1.22413 2.30487 1.14285 2.50947 1.14285H17.4906C17.6951 1.14303 17.8912 1.22443 18.0358 1.36914L22.0832 5.41657C22.1551 5.48844 22.2122 5.57383 22.251 5.66783C22.2899 5.76183 22.3097 5.86258 22.3095 5.96428V26.0857C22.3095 26.187 22.2895 26.2873 22.2507 26.3809C22.212 26.4745 22.1552 26.5596 22.0835 26.6312C22.0119 26.7028 21.9268 26.7596 21.8333 26.7984C21.7397 26.8372 21.6393 26.8571 21.538 26.8571H2.50947C2.40816 26.8571 2.30785 26.8372 2.21425 26.7984C2.12066 26.7596 2.03562 26.7028 1.96398 26.6312C1.89235 26.5596 1.83553 26.4745 1.79676 26.3809C1.75799 26.2873 1.73804 26.187 1.73804 26.0857ZM6.8809 11.4286H17.1666H6.8809ZM6.8809 21.7143H17.1666H6.8809ZM6.8809 16.5714H12.0238H6.8809Z" fill="url(#paint0_linear_322_5024)"/>
<path d="M6.8809 11.4286H17.1666M6.8809 21.7143H17.1666M6.8809 16.5714H12.0238M1.73804 26.0857V1.91428C1.73804 1.70969 1.81931 1.51347 1.96398 1.3688C2.10865 1.22413 2.30487 1.14285 2.50947 1.14285H17.4906C17.6951 1.14303 17.8912 1.22443 18.0358 1.36914L22.0832 5.41657C22.1551 5.48844 22.2122 5.57383 22.251 5.66783C22.2899 5.76183 22.3097 5.86258 22.3095 5.96428V26.0857C22.3095 26.187 22.2895 26.2873 22.2507 26.3809C22.212 26.4745 22.1552 26.5596 22.0835 26.6312C22.0119 26.7028 21.9268 26.7596 21.8333 26.7984C21.7397 26.8372 21.6393 26.8571 21.538 26.8571H2.50947C2.40816 26.8571 2.30785 26.8372 2.21425 26.7984C2.12066 26.7596 2.03562 26.7028 1.96398 26.6312C1.89235 26.5596 1.83553 26.4745 1.79676 26.3809C1.75799 26.2873 1.73804 26.187 1.73804 26.0857Z" stroke="#FDFDFD" stroke-width="1.75" stroke-linecap="round" stroke-linejoin="round"/>
<defs>
<linearGradient id="paint0_linear_322_5024" x1="1.73804" y1="2.27428" x2="23.031" y2="4.16555" gradientUnits="userSpaceOnUse">
<stop offset="0.0001" stop-color="#CAA1FF"/>
<stop offset="0.649" stop-color="#3C0AA4"/>
</linearGradient>
</defs>
</svg>
