<svg width="25" height="24" viewBox="0 0 25 24" fill="none" xmlns="http://www.w3.org/2000/svg">
<path d="M14.086 2C14.5555 2.00011 15.0101 2.16543 15.37 2.467L15.5 2.586L19.914 7C20.246 7.33202 20.4506 7.77028 20.492 8.238L20.5 8.414V20C20.5002 20.5046 20.3096 20.9906 19.9665 21.3605C19.6234 21.7305 19.1532 21.9572 18.65 21.995L18.5 22H6.5C5.99542 22.0002 5.50943 21.8096 5.13945 21.4665C4.76947 21.1234 4.54284 20.6532 4.505 20.15L4.5 20V4C4.49984 3.49542 4.69041 3.00943 5.0335 2.63945C5.37659 2.26947 5.84684 2.04284 6.35 2.005L6.5 2H14.086ZM12.5 4H6.5V20H18.5V10H14C13.6022 10 13.2206 9.84196 12.9393 9.56066C12.658 9.27936 12.5 8.89782 12.5 8.5V4ZM14.5 4.414V8H18.086L14.5 4.414Z" fill="#1E1E1E"/>
</svg>
