<svg width="24" height="25" viewBox="0 0 24 25" fill="none" xmlns="http://www.w3.org/2000/svg">
<path d="M8.16167 7.4952L10.8333 4.81187V16.0002C10.8333 16.3096 10.9563 16.6064 11.175 16.8252C11.3938 17.044 11.6906 17.1669 12 17.1669C12.3094 17.1669 12.6062 17.044 12.825 16.8252C13.0438 16.6064 13.1667 16.3096 13.1667 16.0002V4.81187L15.8383 7.4952C15.9468 7.60455 16.0758 7.69135 16.218 7.75058C16.3602 7.80981 16.5127 7.8403 16.6667 7.8403C16.8207 7.8403 16.9732 7.80981 17.1153 7.75058C17.2575 7.69135 17.3865 7.60455 17.495 7.4952C17.6044 7.38675 17.6912 7.25771 17.7504 7.11554C17.8096 6.97337 17.8401 6.82089 17.8401 6.66687C17.8401 6.51286 17.8096 6.36037 17.7504 6.2182C17.6912 6.07603 17.6044 5.94699 17.495 5.83854L12.8283 1.17187C12.7174 1.06566 12.5866 0.982398 12.4433 0.926871C12.1593 0.810184 11.8407 0.810184 11.5567 0.926871C11.4135 0.982398 11.2826 1.06566 11.1717 1.17187L6.50501 5.83854C6.39623 5.94732 6.30994 6.07645 6.25107 6.21858C6.1922 6.36071 6.1619 6.51304 6.1619 6.66687C6.1619 6.82071 6.1922 6.97304 6.25107 7.11516C6.30994 7.25729 6.39623 7.38643 6.50501 7.4952C6.61379 7.60398 6.74293 7.69027 6.88505 7.74914C7.02718 7.80801 7.17951 7.83831 7.33334 7.83831C7.48718 7.83831 7.63951 7.80801 7.78163 7.74914C7.92376 7.69027 8.0529 7.60398 8.16167 7.4952ZM22.5 12.5002C22.1906 12.5002 21.8938 12.6231 21.675 12.8419C21.4563 13.0607 21.3333 13.3575 21.3333 13.6669V20.6669C21.3333 20.9763 21.2104 21.273 20.9916 21.4918C20.7728 21.7106 20.4761 21.8335 20.1667 21.8335H3.83334C3.52392 21.8335 3.22718 21.7106 3.00839 21.4918C2.78959 21.273 2.66668 20.9763 2.66668 20.6669V13.6669C2.66668 13.3575 2.54376 13.0607 2.32497 12.8419C2.10618 12.6231 1.80943 12.5002 1.50001 12.5002C1.19059 12.5002 0.893844 12.6231 0.675052 12.8419C0.45626 13.0607 0.333344 13.3575 0.333344 13.6669V20.6669C0.333344 21.5951 0.702092 22.4854 1.35847 23.1417C2.01485 23.7981 2.90509 24.1669 3.83334 24.1669H20.1667C21.0949 24.1669 21.9852 23.7981 22.6415 23.1417C23.2979 22.4854 23.6667 21.5951 23.6667 20.6669V13.6669C23.6667 13.3575 23.5438 13.0607 23.325 12.8419C23.1062 12.6231 22.8094 12.5002 22.5 12.5002Z" fill="#300A91"/>
</svg>
