<svg width="25" height="24" viewBox="0 0 25 24" fill="none" xmlns="http://www.w3.org/2000/svg">
<path d="M8.75 6.375C8.75 7.36956 9.14509 8.32339 9.84835 9.02665C10.5516 9.72991 11.5054 10.125 12.5 10.125C13.4946 10.125 14.4484 9.72991 15.1517 9.02665C15.8549 8.32339 16.25 7.36956 16.25 6.375C16.25 5.38044 15.8549 4.42661 15.1517 3.72335C14.4484 3.02009 13.4946 2.625 12.5 2.625C11.5054 2.625 10.5516 3.02009 9.84835 3.72335C9.14509 4.42661 8.75 5.38044 8.75 6.375Z" stroke="#1E1E1E" stroke-width="1.8"/>
<path d="M20 17.1562C20 19.4862 20 21.375 12.5 21.375C5 21.375 5 19.4862 5 17.1562C5 14.8263 8.35786 12.9375 12.5 12.9375C16.6422 12.9375 20 14.8263 20 17.1562Z" stroke="#1E1E1E" stroke-width="1.8"/>
</svg>
