<svg width="24" height="25" viewBox="0 0 24 25" fill="none" xmlns="http://www.w3.org/2000/svg">
<path d="M8.25 6.875C8.25 7.86956 8.64509 8.82339 9.34835 9.52665C10.0516 10.2299 11.0054 10.625 12 10.625C12.9946 10.625 13.9484 10.2299 14.6517 9.52665C15.3549 8.82339 15.75 7.86956 15.75 6.875C15.75 5.88044 15.3549 4.92661 14.6517 4.22335C13.9484 3.52009 12.9946 3.125 12 3.125C11.0054 3.125 10.0516 3.52009 9.34835 4.22335C8.64509 4.92661 8.25 5.88044 8.25 6.875Z" stroke="#1E1E1E" stroke-width="1.8"/>
<path d="M19.5 17.6562C19.5 19.9862 19.5 21.875 12 21.875C4.5 21.875 4.5 19.9862 4.5 17.6562C4.5 15.3263 7.85786 13.4375 12 13.4375C16.1422 13.4375 19.5 15.3263 19.5 17.6562Z" stroke="#1E1E1E" stroke-width="1.8"/>
</svg>
